<svg fill="#000000" xmlns="http://www.w3.org/2000/svg"  viewBox="0 0 24 24" width="48px" height="48px"><path fill="none" stroke="#000000" stroke-miterlimit="10" stroke-width="2" d="M18,20H6c-1.105,0-2-0.895-2-2V6	c0-1.105,0.895-2,2-2h12c1.105,0,2,0.895,2,2v12C20,19.105,19.105,20,18,20z"/><path d="M18,4H6C4.895,4,4,4.895,4,6v12c0,1.105,0.895,2,2,2h12c1.105,0,2-0.895,2-2V6C20,4.895,19.105,4,18,4z M16,11	c-0.605,0-1.332-0.266-2-0.715V14c0,1.654-1.346,3-3,3s-3-1.346-3-3s1.346-3,3-3v2c-0.552,0-1,0.449-1,1s0.448,1,1,1s1-0.449,1-1V7	h2c0,1.005,1.471,2,2,2V11z"/></svg>